<mxfile host="app.diagrams.net" modified="2021-04-01T06:20:58.793Z" agent="5.0 (Macintosh; Intel Mac OS X 10_15_6) AppleWebKit/605.1.15 (KHTML, like Gecko) Version/14.0.2 Safari/605.1.15" etag="YXxMmrB6zv7CxJ3Xspom" version="14.5.3" type="github">
  <diagram id="JyYF5JdYcZ_D7zoRh5Ry" name="Page-1">
    <mxGraphModel dx="2031" dy="677" grid="1" gridSize="10" guides="1" tooltips="1" connect="1" arrows="1" fold="1" page="1" pageScale="1" pageWidth="850" pageHeight="1100" math="0" shadow="0">
      <root>
        <mxCell id="0" />
        <mxCell id="1" parent="0" />
        <mxCell id="3CB8qozqZjZjH3ISDlrA-1" value="丁圣阁" style="ellipse;whiteSpace=wrap;html=1;aspect=fixed;shadow=1;labelBackgroundColor=none;fillColor=#fff2cc;align=center;strokeColor=none;" vertex="1" parent="1">
          <mxGeometry x="170" y="700" width="80" height="80" as="geometry" />
        </mxCell>
        <mxCell id="3CB8qozqZjZjH3ISDlrA-35" style="edgeStyle=none;rounded=0;orthogonalLoop=1;jettySize=auto;html=1;" edge="1" parent="1" source="3CB8qozqZjZjH3ISDlrA-2" target="3CB8qozqZjZjH3ISDlrA-1">
          <mxGeometry relative="1" as="geometry" />
        </mxCell>
        <mxCell id="3CB8qozqZjZjH3ISDlrA-2" value="人力资源安排" style="rounded=1;whiteSpace=wrap;html=1;shadow=1;labelBackgroundColor=none;align=center;fontColor=#333333;fillColor=#f5f5f5;strokeColor=none;" vertex="1" parent="1">
          <mxGeometry x="330" y="710" width="120" height="60" as="geometry" />
        </mxCell>
        <mxCell id="3CB8qozqZjZjH3ISDlrA-33" style="edgeStyle=none;rounded=0;orthogonalLoop=1;jettySize=auto;html=1;" edge="1" parent="1" source="3CB8qozqZjZjH3ISDlrA-3" target="3CB8qozqZjZjH3ISDlrA-1">
          <mxGeometry relative="1" as="geometry" />
        </mxCell>
        <mxCell id="3CB8qozqZjZjH3ISDlrA-3" value="技术预研" style="rounded=1;whiteSpace=wrap;html=1;shadow=1;labelBackgroundColor=none;align=center;fontColor=#333333;fillColor=#f5f5f5;strokeColor=none;" vertex="1" parent="1">
          <mxGeometry x="150" y="590" width="120" height="60" as="geometry" />
        </mxCell>
        <mxCell id="3CB8qozqZjZjH3ISDlrA-34" style="edgeStyle=none;rounded=0;orthogonalLoop=1;jettySize=auto;html=1;" edge="1" parent="1" source="3CB8qozqZjZjH3ISDlrA-4" target="3CB8qozqZjZjH3ISDlrA-1">
          <mxGeometry relative="1" as="geometry" />
        </mxCell>
        <mxCell id="3CB8qozqZjZjH3ISDlrA-4" value="跨团队NTI/NTR合作" style="rounded=1;whiteSpace=wrap;html=1;shadow=1;labelBackgroundColor=none;align=center;fontColor=#333333;fillColor=#f5f5f5;strokeColor=none;" vertex="1" parent="1">
          <mxGeometry x="305" y="630" width="120" height="60" as="geometry" />
        </mxCell>
        <mxCell id="3CB8qozqZjZjH3ISDlrA-32" style="edgeStyle=none;rounded=0;orthogonalLoop=1;jettySize=auto;html=1;" edge="1" parent="1" source="3CB8qozqZjZjH3ISDlrA-6" target="3CB8qozqZjZjH3ISDlrA-21">
          <mxGeometry relative="1" as="geometry" />
        </mxCell>
        <mxCell id="3CB8qozqZjZjH3ISDlrA-6" value="软件对SPS功能需求" style="rounded=1;whiteSpace=wrap;html=1;shadow=1;labelBackgroundColor=none;align=center;fontColor=#333333;fillColor=#f5f5f5;strokeColor=none;" vertex="1" parent="1">
          <mxGeometry x="-30" y="1040" width="120" height="60" as="geometry" />
        </mxCell>
        <mxCell id="3CB8qozqZjZjH3ISDlrA-28" style="edgeStyle=none;rounded=0;orthogonalLoop=1;jettySize=auto;html=1;" edge="1" parent="1" source="3CB8qozqZjZjH3ISDlrA-7" target="3CB8qozqZjZjH3ISDlrA-20">
          <mxGeometry relative="1" as="geometry" />
        </mxCell>
        <mxCell id="3CB8qozqZjZjH3ISDlrA-7" value="产品对SPS功能需求" style="rounded=1;whiteSpace=wrap;html=1;shadow=1;labelBackgroundColor=none;align=center;fontColor=#333333;fillColor=#f5f5f5;strokeColor=none;" vertex="1" parent="1">
          <mxGeometry x="580" y="1160" width="120" height="60" as="geometry" />
        </mxCell>
        <mxCell id="3CB8qozqZjZjH3ISDlrA-29" style="edgeStyle=none;rounded=0;orthogonalLoop=1;jettySize=auto;html=1;" edge="1" parent="1" source="3CB8qozqZjZjH3ISDlrA-8" target="3CB8qozqZjZjH3ISDlrA-22">
          <mxGeometry relative="1" as="geometry" />
        </mxCell>
        <mxCell id="3CB8qozqZjZjH3ISDlrA-8" value="硬件对SPS功能需求" style="rounded=1;whiteSpace=wrap;html=1;shadow=1;labelBackgroundColor=none;align=center;fontColor=#333333;fillColor=#f5f5f5;strokeColor=none;" vertex="1" parent="1">
          <mxGeometry x="580" y="830" width="120" height="60" as="geometry" />
        </mxCell>
        <mxCell id="3CB8qozqZjZjH3ISDlrA-30" style="edgeStyle=none;rounded=0;orthogonalLoop=1;jettySize=auto;html=1;" edge="1" parent="1" source="3CB8qozqZjZjH3ISDlrA-9" target="3CB8qozqZjZjH3ISDlrA-22">
          <mxGeometry relative="1" as="geometry" />
        </mxCell>
        <mxCell id="3CB8qozqZjZjH3ISDlrA-9" value="质量相关" style="rounded=1;whiteSpace=wrap;html=1;shadow=1;labelBackgroundColor=none;align=center;fontColor=#333333;fillColor=#f5f5f5;strokeColor=none;" vertex="1" parent="1">
          <mxGeometry x="580" y="590" width="120" height="60" as="geometry" />
        </mxCell>
        <mxCell id="3CB8qozqZjZjH3ISDlrA-36" style="edgeStyle=none;rounded=0;orthogonalLoop=1;jettySize=auto;html=1;" edge="1" parent="1" source="3CB8qozqZjZjH3ISDlrA-10" target="3CB8qozqZjZjH3ISDlrA-1">
          <mxGeometry relative="1" as="geometry" />
        </mxCell>
        <mxCell id="3CB8qozqZjZjH3ISDlrA-10" value="NPI执行决策" style="rounded=1;whiteSpace=wrap;html=1;shadow=1;labelBackgroundColor=none;align=center;fontColor=#333333;fillColor=#f5f5f5;strokeColor=none;" vertex="1" parent="1">
          <mxGeometry x="300" y="790" width="120" height="60" as="geometry" />
        </mxCell>
        <mxCell id="3CB8qozqZjZjH3ISDlrA-31" style="edgeStyle=none;rounded=0;orthogonalLoop=1;jettySize=auto;html=1;" edge="1" parent="1" source="3CB8qozqZjZjH3ISDlrA-14" target="3CB8qozqZjZjH3ISDlrA-21">
          <mxGeometry relative="1" as="geometry" />
        </mxCell>
        <mxCell id="3CB8qozqZjZjH3ISDlrA-14" value="问题紧急调试支持" style="rounded=1;whiteSpace=wrap;html=1;shadow=1;labelBackgroundColor=none;align=center;fontColor=#333333;fillColor=#f5f5f5;strokeColor=none;" vertex="1" parent="1">
          <mxGeometry x="150" y="920" width="120" height="60" as="geometry" />
        </mxCell>
        <mxCell id="3CB8qozqZjZjH3ISDlrA-23" style="edgeStyle=none;rounded=0;orthogonalLoop=1;jettySize=auto;html=1;" edge="1" parent="1" source="3CB8qozqZjZjH3ISDlrA-15" target="3CB8qozqZjZjH3ISDlrA-20">
          <mxGeometry relative="1" as="geometry" />
        </mxCell>
        <mxCell id="3CB8qozqZjZjH3ISDlrA-15" value="CSE团队" style="rounded=0;whiteSpace=wrap;html=1;shadow=1;labelBackgroundColor=none;fillColor=#dae8fc;align=center;strokeColor=none;" vertex="1" parent="1">
          <mxGeometry x="580" y="920" width="120" height="60" as="geometry" />
        </mxCell>
        <mxCell id="3CB8qozqZjZjH3ISDlrA-24" style="edgeStyle=none;rounded=0;orthogonalLoop=1;jettySize=auto;html=1;" edge="1" parent="1" source="3CB8qozqZjZjH3ISDlrA-16" target="3CB8qozqZjZjH3ISDlrA-1">
          <mxGeometry relative="1" as="geometry" />
        </mxCell>
        <mxCell id="3CB8qozqZjZjH3ISDlrA-16" value="SSE团队及AMOS团队" style="rounded=0;whiteSpace=wrap;html=1;shadow=1;labelBackgroundColor=none;fillColor=#dae8fc;align=center;strokeColor=none;" vertex="1" parent="1">
          <mxGeometry y="630" width="120" height="60" as="geometry" />
        </mxCell>
        <mxCell id="3CB8qozqZjZjH3ISDlrA-25" style="edgeStyle=none;rounded=0;orthogonalLoop=1;jettySize=auto;html=1;" edge="1" parent="1" source="3CB8qozqZjZjH3ISDlrA-17" target="3CB8qozqZjZjH3ISDlrA-1">
          <mxGeometry relative="1" as="geometry" />
        </mxCell>
        <mxCell id="3CB8qozqZjZjH3ISDlrA-17" value="HSE团队" style="rounded=0;whiteSpace=wrap;html=1;shadow=1;labelBackgroundColor=none;fillColor=#dae8fc;align=center;strokeColor=none;" vertex="1" parent="1">
          <mxGeometry x="-30" y="710" width="120" height="60" as="geometry" />
        </mxCell>
        <mxCell id="3CB8qozqZjZjH3ISDlrA-27" style="edgeStyle=none;rounded=0;orthogonalLoop=1;jettySize=auto;html=1;" edge="1" parent="1" source="3CB8qozqZjZjH3ISDlrA-18" target="3CB8qozqZjZjH3ISDlrA-21">
          <mxGeometry relative="1" as="geometry" />
        </mxCell>
        <mxCell id="3CB8qozqZjZjH3ISDlrA-18" value="PSE团队" style="rounded=0;whiteSpace=wrap;html=1;shadow=1;labelBackgroundColor=none;fillColor=#dae8fc;align=center;strokeColor=none;" vertex="1" parent="1">
          <mxGeometry x="150" y="1160" width="120" height="60" as="geometry" />
        </mxCell>
        <mxCell id="3CB8qozqZjZjH3ISDlrA-26" style="edgeStyle=none;rounded=0;orthogonalLoop=1;jettySize=auto;html=1;" edge="1" parent="1" source="3CB8qozqZjZjH3ISDlrA-19" target="3CB8qozqZjZjH3ISDlrA-1">
          <mxGeometry relative="1" as="geometry" />
        </mxCell>
        <mxCell id="3CB8qozqZjZjH3ISDlrA-19" value="架构师团队" style="rounded=0;whiteSpace=wrap;html=1;shadow=1;labelBackgroundColor=none;fillColor=#dae8fc;align=center;strokeColor=none;" vertex="1" parent="1">
          <mxGeometry y="790" width="120" height="60" as="geometry" />
        </mxCell>
        <mxCell id="3CB8qozqZjZjH3ISDlrA-20" value="吴长平" style="ellipse;whiteSpace=wrap;html=1;aspect=fixed;shadow=1;labelBackgroundColor=none;fillColor=#fff2cc;align=center;strokeColor=none;" vertex="1" parent="1">
          <mxGeometry x="600" y="1030" width="80" height="80" as="geometry" />
        </mxCell>
        <mxCell id="3CB8qozqZjZjH3ISDlrA-21" value="舒棚" style="ellipse;whiteSpace=wrap;html=1;aspect=fixed;shadow=1;labelBackgroundColor=none;fillColor=#fff2cc;align=center;strokeColor=none;" vertex="1" parent="1">
          <mxGeometry x="170" y="1030" width="80" height="80" as="geometry" />
        </mxCell>
        <mxCell id="3CB8qozqZjZjH3ISDlrA-22" value="罗安" style="ellipse;whiteSpace=wrap;html=1;aspect=fixed;shadow=1;labelBackgroundColor=none;fillColor=#fff2cc;align=center;strokeColor=none;fontStyle=0" vertex="1" parent="1">
          <mxGeometry x="600" y="700" width="80" height="80" as="geometry" />
        </mxCell>
      </root>
    </mxGraphModel>
  </diagram>
</mxfile>
